HIERARCHY
ROOT Hip
{
	OFFSET	0.0000	0.0000	0.0000
	CHANNELS 6 Xposition Yposition Zposition Xrotation Yrotation Zrotation
	JOINT LowerSpine
	{
		OFFSET	0.0000	8.3453	-5.1292
		CHANNELS 3 Xrotation Yrotation Zrotation
		JOINT MiddleSpine
		{
			OFFSET	10.8569	0.0000	0.0000
			CHANNELS 3 Xrotation Yrotation Zrotation
			JOINT Chest
			{
				OFFSET	15.2984	0.0000	0.0000
				CHANNELS 3 Xrotation Yrotation Zrotation
				JOINT Neck
				{
					OFFSET	25.6618	-0.5986	0.0000
					CHANNELS 3 Xrotation Yrotation Zrotation
					JOINT Head
					{
						OFFSET	8.8829	0.0000	0.0000
						CHANNELS 3 Xrotation Yrotation Zrotation
						End Site
						{
							OFFSET	19.7399	0.0000	0.0000
						}
					}
				}
				JOINT RClavicle
				{
					OFFSET	23.6878	0.0000	3.1584
					CHANNELS 3 Xrotation Yrotation Zrotation
					JOINT RShoulder
					{
						OFFSET	-15.5945	-3.9480	0.9870
						CHANNELS 3 Xrotation Yrotation Zrotation
						JOINT RForearm
						{
							OFFSET	-31.3370	0.0000	0.1974
							CHANNELS 3 Xrotation Yrotation Zrotation
							JOINT RHand
							{
								OFFSET	-26.4021	0.0000	0.0000
								CHANNELS 3 Xrotation Yrotation Zrotation
								End Site
								{
									OFFSET	-15.7919	-0.9870	0.0000
								}
							}
						}
					}
				}
				JOINT LClavicle
				{
					OFFSET	23.6878	0.0000	-3.1584
					CHANNELS 3 Xrotation Yrotation Zrotation
					JOINT LShoulder
					{
						OFFSET	-15.5945	-3.9480	-0.9870
						CHANNELS 3 Xrotation Yrotation Zrotation
						JOINT LForearm
						{
							OFFSET	-31.3370	0.0000	-0.1974
							CHANNELS 3 Xrotation Yrotation Zrotation
							JOINT LHand
							{
								OFFSET	-26.4021	0.0000	0.0000
								CHANNELS 3 Xrotation Yrotation Zrotation
								End Site
								{
									OFFSET	-15.7919	-0.9870	0.0000
								}
							}
						}
					}
				}
			}
		}
	}
	JOINT RThigh
	{
		OFFSET	-8.8829	0.4481	0.0000
		CHANNELS 3 Xrotation Yrotation Zrotation
		JOINT RShin
		{
			OFFSET	43.1316	0.0000	-0.4935
			CHANNELS 3 Xrotation Yrotation Zrotation
			JOINT RFoot
			{
				OFFSET	0.0000	-44.7256	-0.4047
				CHANNELS 3 Xrotation Yrotation Zrotation
				JOINT RToe
				{
					OFFSET	0.0000	-3.9332	12.1953
					CHANNELS 3 Xrotation Yrotation Zrotation
					End Site
					{
						OFFSET	6.7725	0.0000	0.0000
					}
				}
			}
		}
	}
	JOINT LThigh
	{
		OFFSET	8.8829	0.4481	0.0000
		CHANNELS 3 Xrotation Yrotation Zrotation
		JOINT LShin
		{
			OFFSET	43.1316	0.0000	0.4935
			CHANNELS 3 Xrotation Yrotation Zrotation
			JOINT LFoot
			{
				OFFSET	0.0000	-44.7256	0.4047
				CHANNELS 3 Xrotation Yrotation Zrotation
				JOINT LToe
				{
					OFFSET	0.0000	-3.9332	-12.1953
					CHANNELS 3 Xrotation Yrotation Zrotation
					End Site
					{
						OFFSET	6.7725	0.0000	0.0000
					}
				}
			}
		}
	}
}
MOTION
Frames:	11
Frame Time: 0.0169491000
	0.0000	93.1363	0.0000	0.000000	0.000000	0.000000	-89.999990	-90.000000	0.000000	0.000000	0.000000	0.000000	0.000000	0.000000	0.000000	0.000000	0.000000	0.000000	0.000000	0.000000	0.000000	89.999990	0.000003	-89.999990	0.129889	-2.857029	4.156837	0.255388	4.965908	-5.884634	0.000000	0.000000	0.000000	-89.999990	-0.000003	-89.999990	-0.129889	2.857029	4.156894	-0.255388	-4.965908	-5.884634	0.000000	0.000000	0.000000	-89.999990	90.000000	0.000000	89.999990	-0.000003	89.999990	0.000000	0.000000	0.000000	180.000000	90.000000	0.000000	-89.999990	90.000000	0.000000	-90.000000	-0.000003	89.999990	0.000000	0.000000	0.000000	180.000000	-90.000000	0.000000
	13.1410	94.3256	-35.2524	-1.579128	1.347450	1.602211	-89.999990	-90.000000	0.000000	-0.452593	-0.280311	0.083610	-1.507920	-0.937292	0.269647	0.000000	0.000000	0.000000	0.000000	0.000000	0.000000	90.001620	0.031606	-90.425060	-5.287615	8.292611	-2.132951	0.533648	7.642585	-5.915197	0.000000	0.000000	0.000000	-90.010920	-0.163125	-92.195920	18.054300	-0.341577	3.215083	-0.305017	-5.445256	-5.889136	0.000000	0.000000	0.000000	-108.793100	87.498140	25.814370	89.965130	3.887095	89.997210	-0.078024	-0.271430	-0.094252	171.312400	90.000000	0.000000	170.938600	86.306490	101.759700	-89.913610	-9.610761	89.997420	-0.090083	0.098995	-0.024588	189.914500	-90.000000	0.000000
	12.6687	94.0896	-35.2718	-1.273223	1.623340	1.206299	-89.999990	-90.000000	0.000000	-0.356983	-0.314520	0.107018	-1.188213	-1.051211	0.348897	0.000000	0.000000	0.000000	0.000000	0.000000	0.000000	90.001290	0.025674	-90.345250	-9.582130	5.916614	-0.296987	0.963271	11.706110	-5.987441	0.000000	0.000000	0.000000	-90.007460	-0.120485	-91.621270	18.061080	-1.142377	3.744689	-0.383532	-6.202001	-5.897103	0.000000	0.000000	0.000000	-38.961150	86.184730	-45.081650	89.964550	3.951707	89.997180	-1.109488	0.091185	0.040180	173.056300	90.000000	0.000000	179.107800	87.028660	92.558140	-89.907300	-10.305080	89.997800	1.077607	-0.399888	0.136351	189.186900	-90.000000	0.000000
	12.3156	93.9112	-35.3294	-0.911324	1.739822	0.936844	-89.999990	-90.000000	0.000000	-0.267939	-0.336987	0.123837	-0.890603	-1.125658	0.406625	0.000000	0.000000	0.000000	0.000000	0.000000	0.000000	90.001050	0.021115	-90.283900	-13.158160	3.866663	0.934669	1.354691	15.307770	-6.078907	0.000000	0.000000	0.000000	-90.004960	-0.085796	-91.154140	18.116160	-1.521390	4.203530	-0.486644	-7.192476	-5.909130	0.000000	0.000000	0.000000	-18.618520	82.557160	-66.587620	89.959820	4.479142	89.996990	-2.175838	0.549271	0.211913	174.573900	90.000000	0.000000	-170.024200	87.823710	80.630970	-89.902350	-10.848700	89.998150	2.048948	-0.993182	0.346257	188.222600	-90.000000	0.000000
	12.1648	93.8268	-35.4055	-0.617392	1.573124	0.880717	-89.999990	-90.000000	0.000000	-0.183491	-0.344818	0.129343	-0.608750	-1.151074	0.426873	0.000000	0.000000	0.000000	0.000000	0.000000	0.000000	90.000930	0.018875	-90.253780	-14.995310	2.539224	1.486789	1.651078	17.956020	-6.163763	0.000000	0.000000	0.000000	-90.003340	-0.061005	-90.820500	18.154280	-1.720835	4.648684	-0.528673	-7.594985	-5.914538	0.000000	0.000000	0.000000	-13.306760	80.079730	-72.998530	89.950360	5.534435	89.996730	-3.133370	0.988225	0.369899	175.617700	90.000000	0.000000	-163.026000	88.296390	72.942220	-89.900570	-11.044920	89.998280	2.462673	-1.275830	0.459471	187.618300	-90.000000	0.000000
	12.1213	93.7654	-35.4638	-0.459449	1.233288	0.959323	-89.999990	-90.000000	0.000000	-0.096503	-0.342367	0.120884	-0.318907	-1.142066	0.400738	0.000000	0.000000	0.000000	0.000000	0.000000	0.000000	90.000960	0.019373	-90.260480	-15.639260	1.402509	1.805740	1.944776	20.503890	-6.260520	0.000000	0.000000	0.000000	-90.002260	-0.042931	-90.577230	18.133330	-1.818035	5.296197	-0.551630	-7.814524	-5.917616	0.000000	0.000000	0.000000	-11.645720	79.185260	-75.549190	89.939190	6.777185	89.996670	-4.157670	1.274942	0.472826	176.650500	90.000000	0.000000	-165.213900	88.405020	74.801370	-89.899380	-11.175070	89.998380	2.621836	-1.123276	0.411839	187.478500	-90.000000	0.000000
	12.0902	93.6858	-35.4922	-0.407710	1.022386	1.041441	-89.999990	-90.000000	0.000000	-0.009133	-0.334065	0.096305	-0.028240	-1.113655	0.320838	0.000000	0.000000	0.000000	0.000000	0.000000	0.000000	90.001120	0.022509	-90.302670	-16.177380	-0.110244	2.374829	2.312330	23.575740	-6.398495	0.000000	0.000000	0.000000	-90.001530	-0.029966	-90.402840	17.974830	-1.257827	6.304214	-0.788416	-10.064340	-5.954417	0.000000	0.000000	0.000000	-10.835350	78.842220	-77.011360	89.928920	7.917253	89.996810	-5.273042	1.411055	0.539917	177.917300	90.000000	0.000000	-168.984400	88.357060	78.260690	-89.894920	-11.661780	89.998770	2.945605	-0.908175	0.331565	187.397100	-90.000000	0.000000
	12.0277	93.6156	-35.4792	-0.445972	1.000921	1.043496	-89.999990	-90.000000	0.000000	0.072414	-0.324216	0.056079	0.242670	-1.080477	0.188545	0.000000	0.000000	0.000000	0.000000	0.000000	0.000000	90.001360	0.026823	-90.360660	-17.131050	-2.355203	3.672289	2.873283	27.995920	-6.642697	0.000000	0.000000	0.000000	-90.001080	-0.021519	-90.289230	17.440910	0.067654	7.797356	-1.329609	-15.080360	-6.072333	0.000000	0.000000	0.000000	-10.471990	78.466880	-77.998440	89.916950	9.241809	89.997250	-6.185119	1.464185	0.599904	178.766400	90.000000	0.000000	-168.358700	88.293210	77.085580	-89.884400	-12.808440	89.999820	3.359675	-0.858283	0.313323	187.495800	-90.000000	0.000000
	11.9204	93.5509	-35.4360	-0.556602	0.974946	0.992731	-89.999990	-90.000000	0.000000	0.141329	-0.317104	0.003409	0.471241	-1.056995	0.014424	0.000000	0.000000	0.000000	0.000000	0.000000	0.000000	90.001520	0.029701	-90.399380	-18.899970	-5.519198	5.746046	3.831508	34.767350	-7.142561	0.000000	0.000000	0.000000	-90.000920	-0.018411	-90.247440	16.027530	1.418872	9.877515	-1.980955	-20.812160	-6.273283	0.000000	0.000000	0.000000	-10.559220	78.061520	-78.749370	89.900330	11.068970	89.998310	-6.764923	1.316820	0.586156	178.591200	90.000000	0.000000	-165.419600	88.186780	73.158120	-89.864880	-14.912100	90.002350	3.623447	-0.833869	0.311061	188.228800	-90.000000	0.000000
	11.8111	93.4468	-35.4326	-0.635139	0.994830	0.961806	-89.999990	-90.000000	0.000000	0.194051	-0.316940	-0.056579	0.645700	-1.057201	-0.184401	0.000000	0.000000	0.000000	0.000000	0.000000	0.000000	90.001530	0.029954	-90.402750	-21.501290	-8.940008	8.085995	5.187782	42.735210	-7.993590	0.000000	0.000000	0.000000	-90.001110	-0.022084	-90.296850	12.960500	2.018721	12.127860	-2.542758	-25.431580	-6.494077	0.000000	0.000000	0.000000	-10.907700	77.653330	-79.397440	89.883680	12.884840	89.999910	-7.206711	0.722730	0.358136	177.907400	90.000000	0.000000	-164.171500	88.056580	70.264310	-89.834940	-18.075280	90.007610	3.854438	-0.770168	0.302609	189.254500	-90.000000	0.000000
	11.7111	93.2612	-35.5182	-0.581263	1.003534	0.951205	-89.999990	-90.000000	0.000000	0.231920	-0.327712	-0.117928	0.770529	-1.094203	-0.387916	0.000000	0.000000	0.000000	0.000000	0.000000	0.000000	90.001130	0.022448	-90.301740	-23.920020	-11.372680	10.414030	6.655642	49.526920	-9.053699	0.000000	0.000000	0.000000	-90.001680	-0.032567	-90.437840	8.025001	2.024658	13.917650	-3.057608	-29.375170	-6.731180	0.000000	0.000000	0.000000	-11.251270	77.262050	-80.114660	89.869810	14.380510	90.001650	-8.023098	0.140279	0.094841	177.875100	90.000000	0.000000	-164.295800	87.958470	68.191140	-89.797710	-21.879260	90.016450	4.282025	-0.725065	0.293490	189.970800	-90.000000	0.000000
